<?xml version="1.0" encoding="utf-8"?>
<!-- Generator: Adobe Illustrator 26.0.1, SVG Export Plug-In . SVG Version: 6.00 Build 0)  -->
<svg version="1.1" id="Слой_1" xmlns="http://www.w3.org/2000/svg" xmlns:xlink="http://www.w3.org/1999/xlink" x="0px" y="0px"
	 viewBox="0 0 264.3 252.4" style="enable-background:new 0 0 264.3 252.4;" xml:space="preserve">
<style type="text/css">
	.st0{fill:#F98080;}
	.st1{display:none;fill:none;}
	.st2{enable-background:new    ;}
</style>
<path d="M57.3,216.2c0.5-2.9,1.1-6,1.1-9c-0.3-3.9-2.3-8.1-4.7-13c-3.5-7.1-8-16.4-6.2-27.1c-7.7-7.7-9.2-17.9-10.4-25.6
	c-0.7-5-1.4-9.3-3.2-12c-2.3-2.6-4.9-5-7.1-7.1L0.1,97.1l37-4.8l0.4,0c4.4-0.3,10.7-1.9,20.1-12.5c4.7-5.7,12.7-9,22-9.2
	c5-8.8,13.7-13.6,20.4-17.3c2.9-1.6,5.7-3.1,7.8-4.7c2.1-2.1,2.9-3.1,3.2-3.6l0.2-0.5l0.3-0.6c1.9-3.3,3.6-6.7,4.9-9.5l15.8-33.3
	l16,33.6c1.4,2.9,2.9,6.2,4.8,9.4c3,5.2,8.5,8.6,14.9,12.6c4.4,2.7,9.4,5.9,13.9,9.9l0.5,0.4c2.2,2.2,3.7,4.7,4.8,6.7
	c0.5,0,1.1,0,1.6-0.1c1.2,0,2.3-0.1,3.4-0.1c3.7,0,9.2,0.4,14.6,3.5l0.4,0.2l0.4,0.2c3.5,2.4,6.6,5,9.3,7.3c5,4.3,7.9,6.8,11.6,7.3
	l0.2,0c6.4,1,10.9,1.6,10.9,1.6l25,3.3l-26.7,25.3c-2.2,2.1-5,4.7-7.3,7.4c-2.1,2.5-2.8,7.3-3.5,12.5c-1.1,7.9-2.6,18.2-10.6,25.4
	c1.8,11-2.6,20.7-5.9,28c-2,4.4-3.7,8.2-4.3,11.7c0.1,2.8,0.6,5.8,1.2,8.6c1.3,6.8,2.1,11.4,2.1,11.4l4.6,24.8l-32.3-17.6
	c-2.6-1.4-5.9-3.2-9.1-4.5l-0.3-0.1l-0.3-0.1c-0.7-0.3-1.7-0.7-3.8-0.7c-2.3,0-5,0.4-8,1c-3.6,0.6-7.6,1.3-11.8,1.3
	c-1.2,0-2.4-0.1-3.6-0.2l-0.6-0.1l-0.6-0.1c-4.6-0.9-8.2-3-10.9-4.6c-3,2.1-7.3,4.7-13,4.9c-1,0.1-2,0.1-3.1,0.1
	c-4.2,0-8.2-0.7-11.8-1.3c-3.1-0.5-5.8-1-8.1-1c-2.1,0-3.1,0.4-3.8,0.7l-0.5,0.2c-3.1,1.2-6.2,2.9-9.1,4.5l-32.4,17.6L57.3,216.2z"
	/>
<path d="M65.2,217.7c0.6-3.4,1.2-7,1.3-10.6c-0.3-5.7-2.8-10.8-5.5-16.3c-3.8-7.8-8.1-16.6-4.4-26.5c-8.9-5.9-10.2-15.4-11.5-23.8
	c-0.9-5.9-1.7-11.5-4.8-15.8c-2.6-2.9-5.4-5.6-7.9-7.9l-14.5-13.8l20-2.6l0.1,0C46.8,99.7,54.7,95,63.7,85c3.3-4.1,9.4-6.4,16.8-6.4
	c1.4,0,2.8,0.1,4.2,0.3c3.1-9.7,11.6-14.4,19.2-18.6c3.4-1.9,6.6-3.6,9.2-5.7c1.7-1.7,4.3-4.4,5.1-6.2l0.1-0.2l0.1-0.2
	c2.1-3.6,3.8-7.2,5.2-10.1l8.6-18.1l8.8,18.4c1.4,3,3.1,6.5,5.1,9.9c4,7,10.6,11.1,17.6,15.4c4.3,2.7,8.8,5.5,12.8,9.1l0.2,0.1
	c2,2,3.2,4.4,4.1,6.3c0.4,0.7,0.8,1.7,1.1,2.1c1.1,0.5,2.4,0.7,4.5,0.7c0.9,0,1.8,0,2.7-0.1c1,0,2.1-0.1,3.1-0.1
	c3,0,6.9,0.3,10.7,2.4l0.1,0.1l0.1,0.1c3.1,2.1,5.9,4.5,8.5,6.7c5.1,4.4,9.5,8.3,15.7,9.2c6.5,1.1,11.1,1.7,11.2,1.7l8.3,1.1
	l-14.5,13.7c-2.3,2.2-5.3,5-7.9,8.1c-3.6,4.3-4.4,10.2-5.3,16.6c-1.2,8.6-2.6,18.2-11.8,23.3c3.8,10.4-0.4,19.7-4.1,28
	c-2.2,5-4.4,9.7-5,14.6c0.1,3.6,0.7,7.1,1.3,10.5c1.3,6.8,2.1,11.4,2.1,11.4l1.5,8.3l-17.6-9.6c-2.8-1.5-6.3-3.4-10-4.9l-0.1,0
	l-0.1,0c-2.1-1-4.4-1.4-7.1-1.4c-3,0-6.1,0.5-9.4,1.1c-3.4,0.6-6.9,1.2-10.5,1.2c-1,0-1.9,0-2.8-0.1l-0.2,0l-0.2,0
	c-3.4-0.7-6.2-2.3-8.7-3.8c-1.6-1-3.1-1.9-4.4-2.2c-0.5,0.1-1.9,1.1-2.9,1.8c-2.6,1.9-5.8,4.2-10.1,4.3c-0.8,0.1-1.7,0.1-2.6,0.1
	c-3.5,0-7.1-0.6-10.5-1.2c-3.3-0.6-6.4-1.1-9.4-1.1c-2.8,0-5,0.4-7.1,1.4l-0.2,0.1c-3.5,1.4-6.9,3.2-10,4.9l-17.6,9.6L65.2,217.7z"
	/>
<path d="M188.8,240.8c-3.1,0-6.1-0.8-9.1-2.5c-2.5-1.4-5.7-3.1-8.7-4.3l-0.4-0.2l-0.4-0.2c-0.2-0.1-0.7-0.3-2.2-0.3
	c-2,0-4.6,0.4-7.4,0.9c-3.7,0.6-7.9,1.3-12.5,1.3c-1.4,0-2.7-0.1-4-0.2l-0.8-0.1l-0.8-0.2c-4.1-0.8-7.4-2.4-10.1-3.9
	c-3.2,1.9-7.5,4-12.9,4.2c-1.1,0.1-2.2,0.1-3.3,0.1c-4.5,0-8.8-0.7-12.5-1.3c-2.8-0.5-5.4-0.9-7.4-0.9c-1.4,0-2,0.2-2.1,0.3
	l-0.4,0.2l-0.4,0.1c-2.9,1.1-5.7,2.7-8.7,4.3c-3,1.6-6,2.4-9.1,2.4c-4.9,0-9.5-2.1-12.6-5.7c-2.4-1-4.5-2.6-6.2-4.6
	c-3.3-4-4.6-9.3-3.5-15c0.5-2.7,1-5.5,1-8.2c-0.3-3.1-2.2-7.1-4.3-11.3c-3.5-7.1-8.1-16.5-6.9-27.6c-7.5-8.5-9-19-10.1-26.3
	c-0.6-4-1.2-8.1-2.4-10.1c-2.2-2.4-4.6-4.6-6.7-6.7c-6.6-6.3-6.8-14.1-4.7-19.2c0.3-0.8,0.7-1.6,1.2-2.4c0-0.2,0-0.4,0.1-0.6
	c0.8-6,5.3-13.4,15.5-14.7l0.5-0.1l0.6,0c3.6-0.2,8.9-1.7,17.4-11.2c5.1-6,12.9-9,23.3-9c0.7,0,1.5,0,2.3,0
	c5.4-8.9,13.4-14.5,19.6-18.7c1.9-1.3,3.7-2.6,5.3-3.8c1.5-1.5,2.1-2.3,2.4-2.6l0.1-0.3l0.5-0.8c1.8-3.1,3.4-6.5,4.7-9.2
	c3-6.4,8.8-10.2,15.5-10.2c1.4,0,2.7,0.1,4,0.4c1.3-0.3,2.6-0.4,4-0.4c6.7,0,12.4,3.8,15.5,10.2l0.2,0.3c1.4,2.9,2.9,6.1,4.7,9.1
	c2.5,4.3,7.4,7.4,13.5,11.2c4.5,2.8,9.7,6,14.5,10.3l0.3,0.3l0.3,0.3c1.8,1.8,3.2,3.7,4.2,5.5c0.9,0,1.8-0.1,2.8-0.1
	c4.1,0,10.3,0.4,16.6,4l0.5,0.3l0.5,0.3c3.8,2.5,6.9,5.3,9.7,7.7c4.4,3.8,7,6,9.5,6.3l0.2,0c8.2,1.3,14.2,7.1,15.2,14.7
	c0,0.3,0.1,0.7,0.1,1c0.3,0.6,0.6,1.2,0.9,1.9c2.7,6.8,0.9,14-4.9,19.5c-2.1,2-4.8,4.5-7,7.1c-1.3,1.5-2,6.5-2.6,10.5
	c-1.1,7.4-2.6,18.1-10.3,26.3c1.2,11.2-3.2,20.9-6.5,28.3c-1.7,3.8-3.3,7.4-3.9,10.3c0.2,2.5,0.6,5.1,1.1,7.7c1,5.6-0.2,10.9-3.6,15
	c-1.7,2-3.8,3.6-6.2,4.6C198.2,238.7,193.7,240.8,188.8,240.8L188.8,240.8z"/>
<path d="M188.8,232.8c-1.7,0-3.5-0.5-5.3-1.5c-2.7-1.5-6.1-3.3-9.6-4.7l-0.2-0.1l-0.2-0.1c-1.6-0.7-3.3-1-5.5-1
	c-2.7,0-5.6,0.5-8.7,1c-3.6,0.6-7.3,1.2-11.1,1.2c-1.1,0-2.2-0.1-3.2-0.2l-0.4,0l-0.4-0.1c-4.1-0.8-7.3-2.7-9.9-4.3
	c-0.7-0.4-1.4-0.8-2-1.2c-0.3,0.2-0.6,0.4-0.8,0.6c-2.7,1.9-6.7,4.9-12.2,5c-0.9,0.1-1.9,0.1-2.8,0.1c-3.9,0-7.6-0.6-11.1-1.2
	c-3.1-0.5-6.1-1-8.8-1c-2.2,0-3.9,0.3-5.5,1l-0.2,0.1l-0.2,0.1c-3.3,1.3-6.4,3-9.6,4.7c-1.8,1-3.5,1.5-5.3,1.5c0,0,0,0,0,0
	c-3.1,0-6-1.6-7.5-4.3c0-0.1-0.1-0.1-0.1-0.2c-1.9-0.4-3.7-1.4-5-3c-1.3-1.5-2.6-4.2-1.8-8.4c0.6-3.1,1.1-6.5,1.2-9.8
	c-0.3-4.8-2.6-9.6-5.1-14.6c-3.7-7.5-8.1-16.5-5.5-26.8c-8.2-7-9.6-17-10.8-24.7c-0.8-5.3-1.5-10.4-4-13.9c-2.5-2.8-5.2-5.3-7.5-7.5
	c-4.7-4.4-3.3-9.1-2.8-10.5c0.4-1.1,1-2,1.7-2.8c-0.1-0.7-0.1-1.4,0-2.2c0.4-3.3,2.9-7,8.6-7.8l0.3,0l0.3,0
	c7.7-0.5,14.8-4.8,22.9-13.9c3.5-4.2,9.3-6.3,17.2-6.3c2.2,0,4.6,0.2,6.9,0.5c4.1-9.9,12.5-15.7,19.5-20.6c2.2-1.5,4.2-2.9,6.1-4.4
	c1.2-1.2,3.6-3.7,4.2-4.8l0.2-0.4L115,46c2-3.4,3.7-7,5.1-9.8c2.4-5.1,6.6-5.6,8.3-5.6c1.5,0,2.8,0.3,4,0.9c1.1-0.6,2.4-0.9,4-0.9
	c1.7,0,5.8,0.6,8.3,5.6l0.2,0.3c1.4,3,3,6.3,4.9,9.7c3.5,6.1,9.4,9.8,16.2,14c4.5,2.8,9.1,5.7,13.3,9.5l0.2,0.1l0.1,0.1
	c2.4,2.4,3.8,5.3,4.9,7.3c0.1,0.1,0.2,0.3,0.2,0.5c0.7,0.1,1.5,0.1,1.8,0.1c0.8,0,1.7,0,2.5-0.1c1.1,0,2.2-0.1,3.2-0.1
	c3.5,0,8,0.3,12.7,3l0.2,0.1l0.2,0.2c3.3,2.2,6.2,4.7,8.9,7c4.8,4.2,8.7,7.5,13.6,8.2l0.2,0c5.6,0.9,8,4.7,8.4,7.9
	c0.1,0.8,0.1,1.6,0,2.4c0.6,0.7,1.1,1.5,1.4,2.4c0.7,1.7,1.8,6.2-2.9,10.7c-2.3,2.2-5.1,4.8-7.6,7.7c-2.8,3.4-3.6,8.8-4.4,14.6
	c-1.1,7.9-2.6,18.1-11,24.4c2.6,10.6-1.6,20.1-5.2,28c-2.1,4.6-4,9-4.6,13.1c0.1,3.2,0.7,6.5,1.2,9.6c0.8,4.2-0.6,6.9-1.9,8.4
	c-1.3,1.5-3,2.6-5,3c0,0,0,0,0,0C194.8,231.2,192,232.8,188.8,232.8C188.8,232.8,188.8,232.8,188.8,232.8z"/>
<path class="st0" d="M132.2,56.4c0,0,2-23.1,5-16.8c1.5,3.1,3.2,6.8,5.4,10.5c7.1,12.5,21.1,16.5,31.1,25.5c3,3,4,8,6,9
	c6,3,14-1,21,3c9,6,15,15,25.8,16.5c6.6,1.1-7,7.3-7,7.3s14.9-2.4,9.8,2.4c-2.5,2.4-5.5,5.2-8.2,8.4c-10.4,12.4-1.4,34.4-19.4,40.4
	c9,16-6,29-7.8,44.4c0.1,4,0.8,8,1.4,11.4c1.3,6.8-10.4-4.8-10.4-4.8s8.5,14,2.4,10.6c-3.1-1.7-6.6-3.6-10.4-5.1
	c-10.1-4.6-21.1,1.4-31.1,0.4c-5-1-9-5-13-6s-8,6-14,6c-10,1-21-5-31.1-0.4c-3.8,1.5-7.4,3.4-10.4,5.1c-6.1,3.3,2.1-11.6,2.1-11.6
	s-11.4,12.6-10.1,5.8c0.6-3.4,1.3-7.4,1.3-11.4c-0.7-16.4-17.7-28.4-8.7-44.4c-17-8-9-28-18.4-40.5c-2.8-3.1-5.7-5.9-8.2-8.3
	c-5.1-4.8,12.7-2,12.7-2s-16.5-6.6-9.6-7.5c11.5-0.7,20.5-7.7,28.5-16.7c4-5,16.8-3.7,23.8-1.7c2-15,15.2-20.3,25.2-28.3
	c2-2,5-5,6.1-7.5c2.1-3.6,3.9-7.3,5.4-10.5C130.3,33.3,132.2,56.4,132.2,56.4z"/>
<rect x="1.4" y="65.1" class="st1" width="212.6" height="228.9"/>
<g class="st2">
	<path d="M103,94.6h43.6c5.2,0,9.8,1.9,13.6,5.6c3.8,3.8,5.7,8.3,5.7,13.5v6.5c0,5.3-1.9,9.8-5.6,13.6c-3.8,3.8-8.3,5.7-13.7,5.7
		h-6.8l24.9,43.3c0.4,0.7,0.8,1.4,1,2c0.2,0.6,0.3,1.1,0.3,1.6c0,1.8-0.6,3.3-1.9,4.5c-1.2,1.2-2.7,1.9-4.5,1.9
		c-1.2,0-2.4-0.3-3.4-1c-1-0.6-1.9-1.5-2.5-2.7l-28.7-49.7h-9.1V186c0,2.1-0.6,3.8-1.8,5.2c-1.2,1.3-2.7,2-4.6,2
		c-1.9,0-3.4-0.7-4.6-2s-1.8-3-1.8-5.1V94.6z M115.7,107.4v19.4h30.9c1.7,0,3.2-0.7,4.5-2s1.9-2.8,1.9-4.5v-6.5
		c0-1.7-0.6-3.2-1.9-4.5c-1.3-1.3-2.8-1.9-4.5-1.9H115.7z"/>
</g>
</svg>
